name rise43.5482peak65.4966fall89.1036.mot
datacolumns 19
datarows 36
range 10.21495800000000 10.27329000000000
endheader
time	ground_force1_vx	ground_force1_vy	ground_force1_vz	ground_force1_px	ground_force1_py	ground_force1_pz	ground_force2_vx	ground_force2_vy	ground_force2_vz	ground_force2_px	ground_force2_py	ground_force2_pz	ground_torque1_x	ground_torque1_y	ground_torque1_z	ground_torque2_x	ground_torque2_y	ground_torque2_z	
10.21495800000000	8.79249900000000	710.92848700000002	38.41865700000000	0.19597500000000	0.00000000000000	0.09727500000000	0.00000000000000	0.00000000000000	0.00000000000000	0.00000000000000	0.00000000000000	0.00000000000000	0.00000000000000	13.29449100000000	0.00000000000000	0.00000000000000	0.00000000000000	0.00000000000000	
10.21662000000000	8.36582200000000	711.80305799999996	38.33892700000000	0.19507400000000	0.00000000000000	0.09726800000000	0.00000000000000	0.00000000000000	0.00000000000000	0.00000000000000	0.00000000000000	0.00000000000000	0.00000000000000	13.31935400000000	0.00000000000000	0.00000000000000	0.00000000000000	0.00000000000000	
10.21829500000000	7.92914900000000	712.68439999999998	38.26068800000000	0.19416300000000	0.00000000000000	0.09726300000000	0.00000000000000	0.00000000000000	0.00000000000000	0.00000000000000	0.00000000000000	0.00000000000000	0.00000000000000	13.34683300000000	0.00000000000000	0.00000000000000	0.00000000000000	0.00000000000000	
10.21996100000000	7.48253800000000	713.57133999999996	38.18400400000000	0.19324100000000	0.00000000000000	0.09725900000000	0.00000000000000	0.00000000000000	0.00000000000000	0.00000000000000	0.00000000000000	0.00000000000000	0.00000000000000	13.37694300000000	0.00000000000000	0.00000000000000	0.00000000000000	0.00000000000000	
10.22162700000000	7.02607000000000	714.46282599999995	38.10894900000000	0.19231000000000	0.00000000000000	0.09725500000000	0.00000000000000	0.00000000000000	0.00000000000000	0.00000000000000	0.00000000000000	0.00000000000000	0.00000000000000	13.40969500000000	0.00000000000000	0.00000000000000	0.00000000000000	0.00000000000000	
10.22330400000000	6.55984900000000	715.35793500000000	38.03560200000000	0.19137100000000	0.00000000000000	0.09725200000000	0.00000000000000	0.00000000000000	0.00000000000000	0.00000000000000	0.00000000000000	0.00000000000000	0.00000000000000	13.44509600000000	0.00000000000000	0.00000000000000	0.00000000000000	0.00000000000000	
10.22495500000000	6.08400400000000	716.25586999999996	37.96405300000000	0.19042500000000	0.00000000000000	0.09725100000000	0.00000000000000	0.00000000000000	0.00000000000000	0.00000000000000	0.00000000000000	0.00000000000000	0.00000000000000	13.48315000000000	0.00000000000000	0.00000000000000	0.00000000000000	0.00000000000000	
10.22661900000000	5.59868000000000	717.15596200000005	37.89440100000000	0.18947200000000	0.00000000000000	0.09724900000000	0.00000000000000	0.00000000000000	0.00000000000000	0.00000000000000	0.00000000000000	0.00000000000000	0.00000000000000	13.52385700000000	0.00000000000000	0.00000000000000	0.00000000000000	0.00000000000000	
10.22829200000000	5.10404600000000	718.05766400000005	37.82675100000000	0.18851300000000	0.00000000000000	0.09724900000000	0.00000000000000	0.00000000000000	0.00000000000000	0.00000000000000	0.00000000000000	0.00000000000000	0.00000000000000	13.56721200000000	0.00000000000000	0.00000000000000	0.00000000000000	0.00000000000000	
10.22996100000000	4.60028300000000	718.96055799999999	37.76121600000000	0.18755000000000	0.00000000000000	0.09724900000000	0.00000000000000	0.00000000000000	0.00000000000000	0.00000000000000	0.00000000000000	0.00000000000000	0.00000000000000	13.61320600000000	0.00000000000000	0.00000000000000	0.00000000000000	0.00000000000000	
10.23162300000000	4.08759100000000	719.86434399999996	37.69791700000000	0.18658300000000	0.00000000000000	0.09725000000000	0.00000000000000	0.00000000000000	0.00000000000000	0.00000000000000	0.00000000000000	0.00000000000000	0.00000000000000	13.66182600000000	0.00000000000000	0.00000000000000	0.00000000000000	0.00000000000000	
10.23329500000000	3.56618400000000	720.76884299999995	37.63698200000000	0.18561300000000	0.00000000000000	0.09725100000000	0.00000000000000	0.00000000000000	0.00000000000000	0.00000000000000	0.00000000000000	0.00000000000000	0.00000000000000	13.71305400000000	0.00000000000000	0.00000000000000	0.00000000000000	0.00000000000000	
10.23496000000000	3.03628700000000	721.67399300000000	37.57854400000000	0.18464000000000	0.00000000000000	0.09725300000000	0.00000000000000	0.00000000000000	0.00000000000000	0.00000000000000	0.00000000000000	0.00000000000000	0.00000000000000	13.76686600000000	0.00000000000000	0.00000000000000	0.00000000000000	0.00000000000000	
10.23662700000000	2.49813900000000	722.57984299999998	37.52274400000000	0.18366600000000	0.00000000000000	0.09725600000000	0.00000000000000	0.00000000000000	0.00000000000000	0.00000000000000	0.00000000000000	0.00000000000000	0.00000000000000	13.82323700000000	0.00000000000000	0.00000000000000	0.00000000000000	0.00000000000000	
10.23829000000000	1.95198500000000	723.48654799999997	37.46972900000000	0.18269100000000	0.00000000000000	0.09725900000000	0.00000000000000	0.00000000000000	0.00000000000000	0.00000000000000	0.00000000000000	0.00000000000000	0.00000000000000	13.88213400000000	0.00000000000000	0.00000000000000	0.00000000000000	0.00000000000000	
10.23995900000000	1.39808300000000	724.39436799999999	37.41965000000000	0.18171500000000	0.00000000000000	0.09726300000000	0.00000000000000	0.00000000000000	0.00000000000000	0.00000000000000	0.00000000000000	0.00000000000000	0.00000000000000	13.94351900000000	0.00000000000000	0.00000000000000	0.00000000000000	0.00000000000000	
10.24162600000000	0.83669500000000	725.30366000000004	37.37266300000000	0.18073900000000	0.00000000000000	0.09726700000000	0.00000000000000	0.00000000000000	0.00000000000000	0.00000000000000	0.00000000000000	0.00000000000000	0.00000000000000	14.00735100000000	0.00000000000000	0.00000000000000	0.00000000000000	0.00000000000000	
10.24328900000000	0.26809100000000	726.21487100000002	37.32893200000000	0.17976300000000	0.00000000000000	0.09727100000000	0.00000000000000	0.00000000000000	0.00000000000000	0.00000000000000	0.00000000000000	0.00000000000000	0.00000000000000	14.07358300000000	0.00000000000000	0.00000000000000	0.00000000000000	0.00000000000000	
10.24495400000000	-0.30745600000000	727.12853299999995	37.28862100000000	0.17878900000000	0.00000000000000	0.09727600000000	0.00000000000000	0.00000000000000	0.00000000000000	0.00000000000000	0.00000000000000	0.00000000000000	0.00000000000000	14.14216500000000	0.00000000000000	0.00000000000000	0.00000000000000	0.00000000000000	
10.24662400000000	-0.88966600000000	728.04525699999999	37.25190100000000	0.17781500000000	0.00000000000000	0.09728200000000	0.00000000000000	0.00000000000000	0.00000000000000	0.00000000000000	0.00000000000000	0.00000000000000	0.00000000000000	14.21304100000000	0.00000000000000	0.00000000000000	0.00000000000000	0.00000000000000	
10.24828700000000	-1.47825700000000	728.96572400000002	37.21894500000000	0.17684300000000	0.00000000000000	0.09728800000000	0.00000000000000	0.00000000000000	0.00000000000000	0.00000000000000	0.00000000000000	0.00000000000000	0.00000000000000	14.28615000000000	0.00000000000000	0.00000000000000	0.00000000000000	0.00000000000000	
10.24996000000000	-2.07294500000000	729.89067899999998	37.18993000000000	0.17587300000000	0.00000000000000	0.09729500000000	0.00000000000000	0.00000000000000	0.00000000000000	0.00000000000000	0.00000000000000	0.00000000000000	0.00000000000000	14.36142800000000	0.00000000000000	0.00000000000000	0.00000000000000	0.00000000000000	
10.25162100000000	-2.67344300000000	730.82092299999999	37.16503500000000	0.17490400000000	0.00000000000000	0.09730200000000	0.00000000000000	0.00000000000000	0.00000000000000	0.00000000000000	0.00000000000000	0.00000000000000	0.00000000000000	14.43880400000000	0.00000000000000	0.00000000000000	0.00000000000000	0.00000000000000	
10.25329000000000	-3.27946400000000	731.75730399999998	37.14444100000000	0.17393700000000	0.00000000000000	0.09730900000000	0.00000000000000	0.00000000000000	0.00000000000000	0.00000000000000	0.00000000000000	0.00000000000000	0.00000000000000	14.51820700000000	0.00000000000000	0.00000000000000	0.00000000000000	0.00000000000000	
10.25495900000000	-3.89071900000000	732.70070899999996	37.12833200000000	0.17297200000000	0.00000000000000	0.09731700000000	0.00000000000000	0.00000000000000	0.00000000000000	0.00000000000000	0.00000000000000	0.00000000000000	0.00000000000000	14.59955700000000	0.00000000000000	0.00000000000000	0.00000000000000	0.00000000000000	
10.25662800000000	-4.50691800000000	733.65205700000001	37.11689200000000	0.17200900000000	0.00000000000000	0.09732600000000	0.00000000000000	0.00000000000000	0.00000000000000	0.00000000000000	0.00000000000000	0.00000000000000	0.00000000000000	14.68277300000000	0.00000000000000	0.00000000000000	0.00000000000000	0.00000000000000	
10.25828900000000	-5.12777200000000	734.61229100000003	37.11030800000000	0.17104700000000	0.00000000000000	0.09733500000000	0.00000000000000	0.00000000000000	0.00000000000000	0.00000000000000	0.00000000000000	0.00000000000000	0.00000000000000	14.76776900000000	0.00000000000000	0.00000000000000	0.00000000000000	0.00000000000000	
10.25996300000000	-5.75299100000000	735.58236299999999	37.10876600000000	0.17008700000000	0.00000000000000	0.09734500000000	0.00000000000000	0.00000000000000	0.00000000000000	0.00000000000000	0.00000000000000	0.00000000000000	0.00000000000000	14.85445500000000	0.00000000000000	0.00000000000000	0.00000000000000	0.00000000000000	
10.26162000000000	-6.38228600000000	736.56323599999996	37.11245100000000	0.16912800000000	0.00000000000000	0.09735500000000	0.00000000000000	0.00000000000000	0.00000000000000	0.00000000000000	0.00000000000000	0.00000000000000	0.00000000000000	14.94273800000000	0.00000000000000	0.00000000000000	0.00000000000000	0.00000000000000	
10.26329000000000	-7.01536500000000	737.55586600000004	37.12154800000000	0.16816900000000	0.00000000000000	0.09736600000000	0.00000000000000	0.00000000000000	0.00000000000000	0.00000000000000	0.00000000000000	0.00000000000000	0.00000000000000	15.03251900000000	0.00000000000000	0.00000000000000	0.00000000000000	0.00000000000000	
10.26495400000000	-7.65194100000000	738.56119699999999	37.13624300000000	0.16721200000000	0.00000000000000	0.09737800000000	0.00000000000000	0.00000000000000	0.00000000000000	0.00000000000000	0.00000000000000	0.00000000000000	0.00000000000000	15.12369800000000	0.00000000000000	0.00000000000000	0.00000000000000	0.00000000000000	
10.26662300000000	-8.29172100000000	739.58015300000000	37.15671600000000	0.16625400000000	0.00000000000000	0.09739100000000	0.00000000000000	0.00000000000000	0.00000000000000	0.00000000000000	0.00000000000000	0.00000000000000	0.00000000000000	15.21617100000000	0.00000000000000	0.00000000000000	0.00000000000000	0.00000000000000	
10.26830100000000	-8.93441700000000	740.61362899999995	37.18314900000000	0.16529700000000	0.00000000000000	0.09740400000000	0.00000000000000	0.00000000000000	0.00000000000000	0.00000000000000	0.00000000000000	0.00000000000000	0.00000000000000	15.30983100000000	0.00000000000000	0.00000000000000	0.00000000000000	0.00000000000000	
10.26995500000000	-9.57973800000000	741.66248099999996	37.21571700000000	0.16433900000000	0.00000000000000	0.09741900000000	0.00000000000000	0.00000000000000	0.00000000000000	0.00000000000000	0.00000000000000	0.00000000000000	0.00000000000000	15.40456700000000	0.00000000000000	0.00000000000000	0.00000000000000	0.00000000000000	
10.27162700000000	-10.22739100000000	742.72752000000003	37.25459300000000	0.16338000000000	0.00000000000000	0.09743400000000	0.00000000000000	0.00000000000000	0.00000000000000	0.00000000000000	0.00000000000000	0.00000000000000	0.00000000000000	15.50026500000000	0.00000000000000	0.00000000000000	0.00000000000000	0.00000000000000	
10.27329000000000	-10.87708500000000	743.80950299999995	37.29994600000000	0.16242000000000	0.00000000000000	0.09745000000000	0.00000000000000	0.00000000000000	0.00000000000000	0.00000000000000	0.00000000000000	0.00000000000000	0.00000000000000	15.59681000000000	0.00000000000000	0.00000000000000	0.00000000000000	0.00000000000000	
